<svg viewBox="0 0 290 133" class="css-8aabad"><rect xmlns="http://www.w3.org/2000/svg" width="290" height="133" rx="10" ry="10" fill="#111"/><path d="m42.85 36.74-10.875-.122.122 13.685 1.833 7.331 7.575.978 5.254-1.1 2.078-5.987-.611-8.31-3.3-5.62zm-3.544 34.335-7.576-.733-.733 26.76 6.843.733 4.276-.611 3.666-6.599-.367-9.653-1.832-6.231zM20 44.56l.61-23.216 26.883.244 12.34 1.833 5.621 4.277 1.955 18.817-3.054 11.608-2.566 2.444-5.743 2.444 5.132 1.588 2.077 2.2 2.81 5.376 1.344 10.752-1.344 21.506-1.71 2.81-7.576 2.2-13.196 1.955-22.972-.245-.245-35.068zm76.124-23.583v74.536l9.164 1.71 8.92.245-.855 13.807h-6.965l-23.216.856-7.698-.245-1.588-81.134.733-8.797zm67.693 12.22-.489 66.226-1.344 8.798-3.91 3.177-12.463 1.344-22.85-2.2-3.299-3.299-2.321-5.01.488-21.016c0-9.164.123-17.473.367-24.805-.122-12.463 0-24.926.367-25.537 0-.49.733-2.566 2.077-4.521l1.588-3.91 19.306-1.833 13.808 1.71 6.842 2.689zm-22.116 61.705 4.52-1.833 1.467-45.699-2.932-1.71-11.73-.245-1.1 4.155.244 17.228v27.37l1.955.367zm30.18-69.892 3.666-3.3L186.422 20l22.972 1.71 3.177 3.3 2.932 4.887.856 21.017-17.107 1.71-.733-3.177-.122-14.784-5.743-2.2-4.766.611.611 55.719 3.422 1.71 16.495.856v-8.92l-15.151.122-.245-1.466V66.92l19.917-1.467 3.422.611.122 22.117-.611 21.872-19.55 2.199-13.808-1.344-7.82-5.132-1.71-5.499-1.834-66.593zm95.186 62.438v24.438l-38.734.733h-4.154l-1.833-10.997v-3.42l27.86-67.083-25.294 2.322.244-12.342 25.782-.366 18.329.977.733 4.4-1.589 9.041-24.193 56.33z" fill="#fff"/></svg>